<?xml version="1.0" encoding="UTF-8" standalone="no"?>
<!-- Created with Inkscape (http://www.inkscape.org/) -->

<svg
   xmlns:dc="http://purl.org/dc/elements/1.1/"
   xmlns:cc="http://creativecommons.org/ns#"
   xmlns:rdf="http://www.w3.org/1999/02/22-rdf-syntax-ns#"
   xmlns:svg="http://www.w3.org/2000/svg"
   xmlns="http://www.w3.org/2000/svg"
   xmlns:sodipodi="http://sodipodi.sourceforge.net/DTD/sodipodi-0.dtd"
   xmlns:inkscape="http://www.inkscape.org/namespaces/inkscape"
   width="220.2074mm"
   height="78.230621mm"
   viewBox="0 0 220.2074 78.230621"
   version="1.1"
   id="svg8"
   inkscape:version="0.92.3 (2405546, 2018-03-11)"
   sodipodi:docname="slopi-logo.svg">
  <defs
     id="defs2" />
  <sodipodi:namedview
     id="base"
     pagecolor="#ffffff"
     bordercolor="#666666"
     borderopacity="1.0"
     inkscape:pageopacity="0.0"
     inkscape:pageshadow="2"
     inkscape:zoom="0.59714111"
     inkscape:cx="556.60935"
     inkscape:cy="164.87657"
     inkscape:document-units="mm"
     inkscape:current-layer="layer1"
     showgrid="false"
     inkscape:window-width="1366"
     inkscape:window-height="713"
     inkscape:window-x="0"
     inkscape:window-y="27"
     inkscape:window-maximized="1"
     fit-margin-top="10"
     fit-margin-left="10"
     fit-margin-right="10"
     fit-margin-bottom="10" />
  <metadata
     id="metadata5">
    <rdf:RDF>
      <cc:Work
         rdf:about="">
        <dc:format>image/svg+xml</dc:format>
        <dc:type
           rdf:resource="http://purl.org/dc/dcmitype/StillImage" />
        <dc:title></dc:title>
      </cc:Work>
    </rdf:RDF>
  </metadata>
  <g
     inkscape:label="Layer 1"
     inkscape:groupmode="layer"
     id="layer1"
     transform="translate(3.3964728,-103.82101)">
    <g
       id="g1184"
       transform="matrix(0.19511793,0,0,0.24549422,64.204253,123.08025)">
      <path
         id="path898"
         d="m -128.6253,11.627981 q 0,0 -0.26459,-0.529167 -0.26458,-0.529166 -1.32291,-2.248958 -1.05834,-1.7197917 -3.04271,-4.7625 -1.98438,-3.0427083 -5.15938,-6.7468749 -3.175,-3.7041666 -7.14375,-7.4083331 -3.96875,-3.704167 -9.65729,-6.614583 -5.68854,-2.910417 -13.09687,-4.233334 -7.40834,-1.322916 -15.74271,-0.264583 -8.33438,1.058333 -16.13958,3.704167 -7.80521,2.645833 -13.89063,6.085416 -6.08541,3.4395835 -11.77396,8.4666668 -5.68854,5.0270833 -9.525,11.3770832 -3.83645,6.35 -5.02708,10.980208 -1.19062,4.630208 -0.79375,9.128125 0.39688,4.497917 1.71979,7.408333 1.32292,2.910417 5.29167,7.011459 3.96875,4.101041 10.58333,7.937499 6.61459,3.836459 13.75834,7.011459 7.14375,3.175 15.87499,7.672916 8.73125,4.497917 17.5948,8.202083 8.86354,3.704167 16.53645,8.069792 7.67292,4.365625 13.62605,7.540625 5.95312,3.175 9.92187,6.217708 3.96875,3.042709 6.87917,5.953122 2.91041,2.91042 6.08541,7.40834 3.175,4.49791 4.23334,7.67291 1.05833,3.175 0.66146,7.14375 -0.39688,3.96875 -2.77813,8.20209 -2.38125,4.23333 -7.14375,8.73125 -4.7625,4.49791 -9.39271,8.20208 -4.63021,3.70417 -10.58333,6.74687 -5.95313,3.04271 -13.36146,5.95313 -7.40833,2.91042 -15.08125,5.55625 -7.67292,2.64583 -14.94896,4.23333 -7.27604,1.5875 -13.75833,2.11667 -6.48229,0.52917 -11.64167,0.26458 -5.15937,-0.26458 -11.1125,-1.45521 -5.95312,-1.19062 -12.17083,-3.57187 -6.21771,-2.38125 -9.78958,-4.36563 -3.57188,-1.98437 -7.27604,-4.36562 -3.70417,-2.38125 -6.21771,-5.29167 -2.51354,-2.91041 -4.7625,-6.35 -2.24896,-3.43958 -4.49792,-8.86354 -2.24896,-5.42396 -3.70417,-9.26042 -1.4552,-3.83645 -2.64583,-7.27604 -1.19062,-3.43958 -1.45521,-5.29166 -0.26458,-1.85209 0.66146,-6.74688 l 0.92604,-4.89479"
         inkscape:connector-curvature="0"
         style="fill:none;stroke:#000000;stroke-width:28.57499886;stroke-linecap:round" />
      <path
         id="path957"
         d="m -18.982485,-23.231791 q 0,0 -0.132292,0.529167 -0.132291,0.529167 -2.910416,8.466666 -2.778125,7.9375004 -5.688542,17.1979172 -2.910416,9.2604158 -5.291666,18.7854158 -2.38125,9.525 -4.365625,19.446875 -1.984375,9.921875 -4.630209,21.695833 -2.645833,11.773958 -5.55625,22.886458 -2.910416,11.112496 -5.027083,20.637499 -2.116666,9.525 -3.439583,17.06563 -1.322917,7.54062 -2.38125,13.49375 -1.058333,5.95312 -1.5875,9.26041 -0.529167,3.3073 -0.926042,5.82084 -0.396875,2.51354 -0.529166,4.36562 -0.132292,1.85209 0,3.04271 0.132291,1.19063 0.264583,1.5875 0.132292,0.39688 4.101042,2.24896 3.96875,1.85208 9.128124,1.45521 5.159375,-0.39688 11.773959,-2.51354 6.614583,-2.11667 13.890624,-4.63021 7.276042,-2.51354 14.8166669,-5.15938 7.54062497,-2.64583 15.08125,-5.42396 7.5406251,-2.77812 14.5520831,-4.6302 7.011458,-1.85209 12.7,-2.64584 5.688541,-0.79375 11.1125,-1.19062 5.423958,-0.39688 12.435416,-0.26458 7.011458,0.13229 13.49375,0.52916 6.482292,0.39688 13.758334,2.11667 l 7.27604,1.71979"
         inkscape:connector-curvature="0"
         style="fill:none;stroke:#000000;stroke-width:28.57499886;stroke-linecap:round" />
      <path
         id="path1004"
         d="m 277.294,4.5400294 q 0,0 -0.13229,0 -0.13229,0 -0.92604,-0.6614587 -0.79375,-0.6614573 -3.83646,-2.2489564 -3.04271,-1.58749906 -8.86354,-3.9687478 -5.82083,-2.3812485 -14.02292,-4.7624973 -8.20208,-2.3812485 -18.12396,-3.5718732 -9.92187,-1.190625 -20.10833,-0.661458 -10.18646,0.529167 -19.57917,2.7781241 -9.3927,2.2489568 -17.06562,6.3499964 -7.67292,4.1010384 -14.2875,9.5249944 -6.61458,5.4239581 -11.77396,13.2291701 -5.15937,7.805213 -9.26041,17.594798 -4.10105,9.789583 -6.08542,20.637499 -1.98438,10.847917 -1.45521,20.6375 0.52917,9.789583 3.30729,18.520833 2.77813,8.731287 5.42396,15.875077 2.64583,7.14379 6.61458,12.30316 3.96875,5.15938 8.99584,10.45104 5.02708,5.29167 10.71562,8.99584 5.68854,3.70416 13.62604,7.01145 7.9375,3.3073 16.53646,4.8948 8.59896,1.5875 18.91771,1.05833 10.31875,-0.52917 20.50521,-2.91042 10.18646,-2.38125 18.52083,-5.29166 8.33438,-2.91042 15.875,-8.0698 7.54063,-5.15937 13.62604,-11.37708 6.08542,-6.21771 11.1125,-13.22918 5.02708,-7.0115 7.9375,-14.15529 2.91042,-7.143767 4.36563,-13.75835 1.4552,-6.614583 1.4552,-13.49375 0,-6.879166 -1.05833,-13.890625 -1.05833,-7.011458 -2.38125,-13.758333 -1.32292,-6.746875 -3.70417,-13.229166 -2.38125,-6.482293 -6.61458,-12.700005 -4.23333,-6.217711 -10.05416,-12.17084 -5.82084,-5.9531216 -10.71563,-9.78957842 -4.89479,-3.83645548 -11.77396,-6.21770428 -6.87916,-2.3812485 -11.24479,-2.2489568 l -4.36562,0.132291"
         inkscape:connector-curvature="0"
         style="fill:#ffffff;stroke:#000000;stroke-width:28.57499886;stroke-linecap:round" />
      <g
         id="g1159">
        <path
           style="fill:none;stroke:#000000;stroke-width:28.57499886;stroke-linecap:round"
           inkscape:connector-curvature="0"
           d="m 399.64317,32.756408 q 0,0 0,0.926042 0,0.926042 0.13229,3.704166 0.1323,2.778125 0.66146,7.672917 0.52917,4.894792 1.5875,11.641667 1.05834,6.746874 2.24896,14.419791 1.19063,7.672917 2.38125,15.610417 1.19063,7.937499 2.24896,15.478122 1.05833,7.54063 1.98437,14.41979 0.92605,6.87917 2.24896,13.75834 1.32292,6.87916 3.04271,13.36146 1.71979,6.48229 3.175,12.03854 1.45521,5.55625 2.51354,11.1125 1.05834,5.55625 1.98438,10.18645 0.92604,4.63021 1.19062,5.42396 l 0.26459,0.79375"
           id="path1065" />
        <path
           style="fill:none;stroke:#000000;stroke-width:28.57499886;stroke-linecap:round"
           inkscape:connector-curvature="0"
           d="m 395.67442,31.433492 q 0,0 0.26459,-0.264584 0.26458,-0.264583 1.71979,-1.455208 1.45521,-1.190625 5.68854,-3.307292 4.23333,-2.116666 10.58333,-4.365625 6.35,-2.248958 13.36146,-3.96875 7.01146,-1.719791 14.15521,-2.513541 7.14375,-0.79375 14.41979,-0.79375 7.27604,0 14.02292,1.5875 6.74687,1.5875 11.64166,4.233333 4.89479,2.645833 9.39271,5.688542 4.49792,3.042708 7.67292,7.276041 3.175,4.233333 5.55625,9.525 2.38125,5.291667 3.43958,10.847917 1.05833,5.55625 0.79375,11.377083 -0.26458,5.820833 -1.05833,9.921875 -0.79375,4.101041 -3.57188,8.863541 -2.77812,4.7625 -5.82083,7.9375 -3.04271,3.175 -8.99583,8.202086 -5.95313,5.02708 -11.2448,8.33437 -5.29166,3.30729 -11.77395,5.68854 -6.4823,2.38125 -14.15521,3.96875 -7.67292,1.5875 -14.68438,2.11667 -7.01145,0.52917 -13.89062,0.39688 -6.87917,-0.1323 -11.24479,-0.66146 -4.36563,-0.52917 -5.42396,-0.66146 l -1.05833,-0.13229"
           id="path1067" />
      </g>
      <g
         id="g1168">
        <path
           style="fill:none;stroke:#000000;stroke-width:28.57499886;stroke-linecap:round"
           inkscape:connector-curvature="0"
           d="m 667.17853,1.1635451 q 0,0 0,0.5291667 0,0.5291667 0,1.3229167 0,0.7937499 0,3.8364582 0,3.0427083 -0.26458,11.1125003 -0.26458,8.069791 -0.52917,15.478124 -0.26458,7.408334 -0.66145,15.610417 -0.39688,8.202083 -0.26459,16.536458 0.13229,8.334375 0.52917,15.875 0.39687,7.540625 0.92604,13.758333 0.52917,6.217711 1.05833,11.906251 0.52917,5.68854 1.19063,10.31875 0.66146,4.63021 1.19062,9.65729 0.52917,5.02708 1.05834,10.31875 0.52916,5.29167 0.92604,9.39271 0.39687,4.10104 0.79375,8.20208 0.39687,4.10104 0.39687,6.48229 0,2.38125 0,3.43959 0,1.05833 -0.26458,2.11666 l -0.26458,1.05834"
           id="path1131" />
        <path
           style="fill:none;stroke:#000000;stroke-width:28.57499886;stroke-linecap:round"
           inkscape:connector-curvature="0"
           d="m 623.78687,7.2489617 q 0,0 1.98437,-0.6614583 1.98438,-0.6614583 6.08542,-1.5875 4.10104,-0.9260416 10.58333,-2.5135416 6.4823,-1.58749999 14.15521,-3.8364583 7.67292,-2.2489583 15.08125,-4.6302083 7.40833,-2.3812499 13.89063,-3.5718749 6.48229,-1.1906253 12.17083,-0.396875 l 5.68854,0.79375"
           id="path1133" />
        <path
           style="fill:none;stroke:#000000;stroke-width:28.57499886;stroke-linecap:round"
           inkscape:connector-curvature="0"
           d="m 636.22229,185.04896 q 0,0 0.13229,-0.13229 0.13229,-0.13229 1.32291,-0.52917 1.19063,-0.39687 4.63021,-1.45521 3.43959,-1.05833 8.59896,-2.51354 5.15938,-1.45521 12.03854,-2.91042 6.87917,-1.4552 14.68438,-2.91041 7.8052,-1.45521 15.47812,-2.91042 7.67292,-1.45521 13.62604,-2.51354 5.95313,-1.05833 7.80521,-1.5875 l 1.85208,-0.52917"
           id="path1135" />
      </g>
    </g>
  </g>
</svg>
