<?xml version="1.0" encoding="UTF-8" standalone="no"?>
<svg
   xmlns:dc="http://purl.org/dc/elements/1.1/"
   xmlns:cc="http://creativecommons.org/ns#"
   xmlns:rdf="http://www.w3.org/1999/02/22-rdf-syntax-ns#"
   xmlns:svg="http://www.w3.org/2000/svg"
   xmlns="http://www.w3.org/2000/svg"
   xmlns:sodipodi="http://sodipodi.sourceforge.net/DTD/sodipodi-0.dtd"
   xmlns:inkscape="http://www.inkscape.org/namespaces/inkscape"
   sodipodi:docname="slopi-logo.svg"
   inkscape:version="1.0alpha2 (863a58d, 2019-08-17)"
   id="svg8"
   version="1.1"
   viewBox="0 0 220.2074 78.230621"
   height="78.230621mm"
   width="220.2074mm">
  <defs
     id="defs2" />
<style>
    @media (prefers-color-scheme:dark) {
    path {
        fill: #ffffff
    }
    }
</style>
  <sodipodi:namedview
     inkscape:pagecheckerboard="true"
     inkscape:document-rotation="0"
     fit-margin-bottom="10"
     fit-margin-right="10"
     fit-margin-left="10"
     fit-margin-top="10"
     inkscape:window-maximized="0"
     inkscape:window-y="23"
     inkscape:window-x="0"
     inkscape:window-height="1209"
     inkscape:window-width="1801"
     showgrid="false"
     inkscape:current-layer="layer1"
     inkscape:document-units="mm"
     inkscape:cy="560"
     inkscape:cx="374.64789"
     inkscape:zoom="0.71"
     inkscape:pageshadow="2"
     inkscape:pageopacity="0.0"
     borderopacity="1.0"
     bordercolor="#666666"
     pagecolor="#ffffff"
     id="base" />
  <metadata
     id="metadata5">
    <rdf:RDF>
      <cc:Work
         rdf:about="">
        <dc:format>image/svg+xml</dc:format>
        <dc:type
           rdf:resource="http://purl.org/dc/dcmitype/StillImage" />
        <dc:title></dc:title>
      </cc:Work>
    </rdf:RDF>
  </metadata>
  <g
     transform="translate(3.3964728,-103.82101)"
     id="layer1"
     inkscape:groupmode="layer"
     inkscape:label="Layer 1">
    <g
       id="g937">
      <path
         style="opacity:1;fill:none;stroke:#000000;stroke-width:6.25397;stroke-linecap:round;stop-opacity:1"
         inkscape:connector-curvature="0"
         d="m 39.107151,125.93485 q 0,0 -0.05163,-0.12991 -0.05162,-0.1299 -0.258123,-0.5521 -0.206501,-0.4222 -0.593687,-1.16917 -0.387188,-0.74697 -1.006688,-1.65632 -0.619499,-0.90935 -1.393874,-1.8187 -0.774374,-0.90935 -1.88431,-1.62384 -1.109936,-0.71449 -2.555434,-1.03926 -1.4455,-0.32477 -3.071685,-0.0649 -1.626187,0.25981 -3.149122,0.90935 -1.522936,0.64953 -2.710311,1.49393 -1.187372,0.8444 -2.29731,2.07852 -1.109936,1.23412 -1.858499,2.79301 -0.74856,1.55889 -0.980873,2.69558 -0.232311,1.13668 -0.154875,2.2409 0.07744,1.10421 0.335562,1.8187 0.258125,0.71449 1.0325,1.72127 0.774374,1.00678 2.064997,1.94861 1.290625,0.94183 2.684499,1.72128 1.393874,0.77944 3.097495,1.88365 1.703624,1.10422 3.433061,2.01357 1.729436,0.90935 3.226558,1.98108 1.497124,1.07174 2.658687,1.85118 1.16156,0.77945 1.935934,1.52641 0.774375,0.74697 1.34225,1.46146 0.567873,0.71449 1.187372,1.81871 0.6195,1.10421 0.826001,1.88365 0.206499,0.77945 0.129063,1.75375 -0.07744,0.97431 -0.542063,2.01357 -0.464625,1.03925 -1.393874,2.14347 -0.929249,1.10421 -1.832686,2.01356 -0.903437,0.90935 -2.064998,1.65632 -1.161562,0.74697 -2.60706,1.46146 -1.445498,0.71449 -2.942622,1.36403 -1.497125,0.64953 -2.91681,1.03925 -1.419686,0.38973 -2.684497,0.51963 -1.264811,0.12991 -2.271499,0.065 -1.006685,-0.065 -2.168248,-0.35725 -1.16156,-0.29229 -2.374747,-0.87687 -1.213187,-0.58459 -1.910123,-1.07174 -0.696937,-0.48715 -1.419685,-1.07173 -0.72275,-0.58459 -1.213187,-1.29908 -0.490437,-0.71449 -0.929249,-1.55889 -0.438813,-0.84439 -0.877625,-2.17594 -0.438813,-1.33156 -0.72275,-2.27338 -0.2839357,-0.94183 -0.5162489,-1.78623 -0.2323114,-0.8444 -0.2839376,-1.29907 -0.051624,-0.45468 0.1290627,-1.65632 l 0.180687,-1.20164"
         id="path898" />
      <path
         style="opacity:1;fill:none;stroke:#000000;stroke-width:6.25397;stroke-linecap:round;stop-opacity:1"
         inkscape:connector-curvature="0"
         d="m 60.50043,117.37698 q 0,0 -0.02581,0.12991 -0.02581,0.1299 -0.567874,2.07851 -0.542062,1.94862 -1.109937,4.22199 -0.567874,2.27338 -1.032499,4.61171 -0.464624,2.33834 -0.851811,4.7741 -0.387187,2.43576 -0.903437,5.3262 -0.516249,2.89044 -1.084124,5.6185 -0.567874,2.72805 -0.980874,5.06638 -0.413,2.33833 -0.671124,4.18952 -0.258125,1.85117 -0.464625,3.31263 -0.2065,1.46146 -0.30975,2.27338 -0.10325,0.81192 -0.180687,1.42898 -0.07744,0.61706 -0.10325,1.07174 -0.02581,0.45467 0,0.74696 0.02581,0.2923 0.05163,0.38973 0.02581,0.0974 0.800187,0.5521 0.774374,0.45468 1.781061,0.35725 1.006686,-0.0974 2.29731,-0.61706 1.290624,-0.51963 2.71031,-1.13669 1.419686,-0.61706 2.890997,-1.2666 1.471311,-0.64953 2.942623,-1.33155 1.471311,-0.68201 2.839372,-1.13669 1.368061,-0.45467 2.477998,-0.64953 1.109936,-0.19487 2.168248,-0.2923 1.058311,-0.0974 2.426372,-0.0649 1.368061,0.0325 2.632873,0.12991 1.264811,0.0974 2.684497,0.51963 l 1.419686,0.4222"
         id="path957" />
      <path
         style="opacity:1;fill:none;stroke:#000000;stroke-width:6.25397;stroke-linecap:round;stop-opacity:1"
         inkscape:connector-curvature="0"
         d="m 118.30928,124.1948 q 0,0 -0.0258,0 -0.0258,0 -0.18068,-0.16238 -0.15488,-0.16239 -0.74857,-0.55211 -0.59368,-0.38972 -1.72943,-0.9743 -1.13575,-0.58459 -2.73613,-1.16917 -1.60037,-0.58458 -3.53631,-0.87687 -1.93593,-0.2923 -3.92349,-0.16239 -1.98756,0.12991 -3.82025,0.68202 -1.832682,0.5521 -3.329807,1.55888 -1.497124,1.00678 -2.787747,2.33833 -1.290623,1.33155 -2.297311,3.24769 -1.006685,1.91613 -1.806872,4.31942 -0.800188,2.40329 -1.187374,5.06639 -0.387188,2.6631 -0.283938,5.06638 0.103251,2.40329 0.645312,4.54676 0.542063,2.14348 1.058312,3.89724 0.516248,1.75376 1.290623,3.02036 0.774374,1.26659 1.755249,2.56567 0.980874,1.29907 2.09081,2.20842 1.109936,0.90935 2.658685,1.72127 1.548748,0.81193 3.226558,1.20165 1.67781,0.38972 3.69119,0.25981 2.01337,-0.12991 4.00093,-0.71449 1.98756,-0.58458 3.61375,-1.29907 1.62618,-0.71449 3.09749,-1.98109 1.47132,-1.2666 2.65869,-2.79301 1.18737,-1.52641 2.16825,-3.24769 0.98087,-1.72128 1.54874,-3.47504 0.56788,-1.75375 0.85182,-3.37759 0.28393,-1.62384 0.28393,-3.31264 0,-1.6888 -0.2065,-3.41007 -0.2065,-1.72127 -0.46462,-3.37759 -0.25813,-1.65632 -0.72275,-3.24768 -0.46463,-1.59137 -1.29062,-3.11778 -0.826,-1.52641 -1.96175,-2.98787 -1.13575,-1.46146 -2.09081,-2.40329 -0.95506,-0.94182 -2.29731,-1.52641 -1.34225,-0.58458 -2.19406,-0.5521 l -0.85181,0.0325"
         id="path1004" />
      <g
         style="opacity:1;stop-opacity:1"
         id="g1159"
         transform="matrix(0.19511793,0,0,0.24549422,64.204253,123.08025)">
        <path
           id="path1065"
           d="m 399.64317,32.756408 q 0,0 0,0.926042 0,0.926042 0.13229,3.704166 0.1323,2.778125 0.66146,7.672917 0.52917,4.894792 1.5875,11.641667 1.05834,6.746874 2.24896,14.419791 1.19063,7.672917 2.38125,15.610417 1.19063,7.937499 2.24896,15.478122 1.05833,7.54063 1.98437,14.41979 0.92605,6.87917 2.24896,13.75834 1.32292,6.87916 3.04271,13.36146 1.71979,6.48229 3.175,12.03854 1.45521,5.55625 2.51354,11.1125 1.05834,5.55625 1.98438,10.18645 0.92604,4.63021 1.19062,5.42396 l 0.26459,0.79375"
           inkscape:connector-curvature="0"
           style="fill:none;stroke:#000000;stroke-width:28.575;stroke-linecap:round" />
        <path
           id="path1067"
           d="m 395.67442,31.433492 q 0,0 0.26459,-0.264584 0.26458,-0.264583 1.71979,-1.455208 1.45521,-1.190625 5.68854,-3.307292 4.23333,-2.116666 10.58333,-4.365625 6.35,-2.248958 13.36146,-3.96875 7.01146,-1.719791 14.15521,-2.513541 7.14375,-0.79375 14.41979,-0.79375 7.27604,0 14.02292,1.5875 6.74687,1.5875 11.64166,4.233333 4.89479,2.645833 9.39271,5.688542 4.49792,3.042708 7.67292,7.276041 3.175,4.233333 5.55625,9.525 2.38125,5.291667 3.43958,10.847917 1.05833,5.55625 0.79375,11.377083 -0.26458,5.820833 -1.05833,9.921875 -0.79375,4.101041 -3.57188,8.863541 -2.77812,4.7625 -5.82083,7.9375 -3.04271,3.175 -8.99583,8.202086 -5.95313,5.02708 -11.2448,8.33437 -5.29166,3.30729 -11.77395,5.68854 -6.4823,2.38125 -14.15521,3.96875 -7.67292,1.5875 -14.68438,2.11667 -7.01145,0.52917 -13.89062,0.39688 -6.87917,-0.1323 -11.24479,-0.66146 -4.36563,-0.52917 -5.42396,-0.66146 l -1.05833,-0.13229"
           inkscape:connector-curvature="0"
           style="fill:none;stroke:#000000;stroke-width:28.575;stroke-linecap:round" />
      </g>
      <g
         style="opacity:1;stop-opacity:1"
         id="g1168"
         transform="matrix(0.19511793,0,0,0.24549422,64.204253,123.08025)">
        <path
           id="path1131"
           d="m 667.17853,1.1635451 q 0,0 0,0.5291667 0,0.5291667 0,1.3229167 0,0.7937499 0,3.8364582 0,3.0427083 -0.26458,11.1125003 -0.26458,8.069791 -0.52917,15.478124 -0.26458,7.408334 -0.66145,15.610417 -0.39688,8.202083 -0.26459,16.536458 0.13229,8.334375 0.52917,15.875 0.39687,7.540625 0.92604,13.758333 0.52917,6.217711 1.05833,11.906251 0.52917,5.68854 1.19063,10.31875 0.66146,4.63021 1.19062,9.65729 0.52917,5.02708 1.05834,10.31875 0.52916,5.29167 0.92604,9.39271 0.39687,4.10104 0.79375,8.20208 0.39687,4.10104 0.39687,6.48229 0,2.38125 0,3.43959 0,1.05833 -0.26458,2.11666 l -0.26458,1.05834"
           inkscape:connector-curvature="0"
           style="fill:none;stroke:#000000;stroke-width:28.575;stroke-linecap:round" />
        <path
           id="path1133"
           d="m 623.78687,7.2489617 q 0,0 1.98437,-0.6614583 1.98438,-0.6614583 6.08542,-1.5875 4.10104,-0.9260416 10.58333,-2.5135416 6.4823,-1.58749999 14.15521,-3.8364583 7.67292,-2.2489583 15.08125,-4.6302083 7.40833,-2.3812499 13.89063,-3.5718749 6.48229,-1.1906253 12.17083,-0.396875 l 5.68854,0.79375"
           inkscape:connector-curvature="0"
           style="fill:none;stroke:#000000;stroke-width:28.575;stroke-linecap:round" />
        <path
           id="path1135"
           d="m 636.22229,185.04896 q 0,0 0.13229,-0.13229 0.13229,-0.13229 1.32291,-0.52917 1.19063,-0.39687 4.63021,-1.45521 3.43959,-1.05833 8.59896,-2.51354 5.15938,-1.45521 12.03854,-2.91042 6.87917,-1.4552 14.68438,-2.91041 7.8052,-1.45521 15.47812,-2.91042 7.67292,-1.45521 13.62604,-2.51354 5.95313,-1.05833 7.80521,-1.5875 l 1.85208,-0.52917"
           inkscape:connector-curvature="0"
           style="fill:none;stroke:#000000;stroke-width:28.575;stroke-linecap:round" />
      </g>
    </g>
  </g>
</svg>
